<svg width="475" height="833" viewBox="0 0 475 833" fill="none" xmlns="http://www.w3.org/2000/svg">
<g clip-path="url(#clip0_608_2224)">
<path d="M95.8919 89.0848L81.6279 25.7564L76.9754 5.12586C76.5894 3.42395 75.5435 1.94514 74.0677 1.01472C72.592 0.0842928 70.8072 -0.221539 69.1061 0.164508L62.0794 1.75445L5.73152 14.4738C4.89031 14.6634 4.09468 15.017 3.39013 15.5144C2.68557 16.0118 2.08589 16.6432 1.62535 17.3726C1.16482 18.102 0.852481 18.915 0.706148 19.7652C0.559814 20.6154 0.582377 21.4861 0.772542 22.3276C-2.25251 50.5055 3.72115 76.4995 16.6833 100.827C17.6406 102.647 18.6554 104.467 19.7084 106.287C19.9871 107.545 20.6336 108.692 21.5657 109.581C22.3503 110.331 23.3078 110.876 24.3532 111.166C25.3986 111.457 26.4996 111.485 27.5584 111.248L34.949 109.581L39.5059 108.547L90.9332 96.9386C92.6315 96.5547 94.108 95.5117 95.0379 94.0389C95.9677 92.5661 96.275 90.7841 95.8919 89.0848Z" fill="#E6E6E6"/>
<path d="M89.9949 85.5603L76.4009 25.3159L73.1461 10.8535C72.7874 9.26118 71.8115 7.8765 70.4329 7.00369C69.0543 6.13087 67.3857 5.84133 65.7938 6.19867L61.4667 7.17563L11.3222 18.4965C9.73069 18.8554 8.34667 19.8318 7.47428 21.2111C6.60189 22.5904 6.31247 24.2597 6.66963 25.8523C7.10996 47.7854 9.40756 67.6881 18.8467 79.8328C19.9211 84.5566 22.2267 88.9115 25.5293 92.4545C28.8318 95.9975 33.0133 98.6022 37.6485 100.004C37.7634 100.042 37.8591 100.08 37.974 100.119C38.0506 100.138 38.1464 100.176 38.2229 100.195C42.5858 101.423 47.1861 101.542 51.6064 100.54L85.3423 92.916C86.9338 92.5571 88.3178 91.5808 89.1902 90.2015C90.0626 88.8223 90.352 87.153 89.9949 85.5603Z" fill="white"/>
<path d="M40.0372 38.584C41.1467 37.3031 42.6407 36.4158 44.2959 36.0547C45.9512 35.6936 47.6788 35.8781 49.2205 36.5806C52.5667 38.2528 53.8651 41.8105 53.3305 45.348C52.7332 49.2999 50.67 52.8974 50.4826 56.9436C50.3186 60.4847 51.6379 64.2054 54.7743 66.1118C57.0233 67.4788 59.3382 64.0946 57.0784 62.721C53.3598 60.4607 54.6094 55.4936 55.6881 52.1056C57.0349 47.875 58.4384 43.5622 56.7722 39.2031C56.0346 37.378 54.8514 35.767 53.3308 34.5176C51.8102 33.2682 50.0007 32.4202 48.0679 32.0512C46.1351 31.6822 44.1406 31.804 42.267 32.4054C40.3933 33.0068 38.7003 34.0686 37.3428 35.4937C35.5684 37.408 38.2403 40.5225 40.0372 38.584Z" fill="#3F51B5"/>
<path d="M58.0878 77.9281C60.3512 77.9281 62.186 76.0924 62.186 73.8279C62.186 71.5635 60.3512 69.7278 58.0878 69.7278C55.8245 69.7278 53.9897 71.5635 53.9897 73.8279C53.9897 76.0924 55.8245 77.9281 58.0878 77.9281Z" fill="#3F51B5"/>
<path d="M316.021 792.543L251.14 792.156L230.003 792.032C226.371 792.013 223.393 793.395 223.353 795.118L223.268 798.537L222.556 825.947C222.502 827.66 225.409 829.082 229.04 829.101C255.506 833.432 282.461 833.869 309.053 830.399C311.044 830.157 313.048 829.892 315.063 829.603C316.292 829.622 317.517 829.455 318.697 829.109C320.491 828.555 321.677 827.606 321.708 826.526L321.803 822.931L321.855 820.714L322.505 795.697C322.545 793.973 319.634 792.56 316.021 792.543Z" fill="#E6E6E6"/>
<path d="M311.225 794.877L249.499 794.52L234.683 794.43C231.287 794.41 228.493 795.7 228.451 797.312L228.396 799.417L227.764 823.81C227.722 825.421 230.441 826.747 233.836 826.767C255.262 828.978 275.145 830.109 289.143 827.089C299.334 827.141 308.321 824.534 313.118 820.631C313.182 820.582 313.241 820.542 313.305 820.493C313.342 820.46 313.401 820.42 313.437 820.387C314.414 819.666 315.226 818.746 315.819 817.688C316.413 816.629 316.774 815.456 316.879 814.247L317.297 797.835C317.339 796.223 314.62 794.897 311.225 794.877Z" fill="white"/>
<path d="M253.958 812.766C252.067 811.422 251.868 809.594 254.142 808.307C256.545 806.946 260.305 806.738 263.62 807.375C267.323 808.085 270.342 809.434 274.233 809.966C277.637 810.431 281.561 810.232 284.142 808.994C285.993 808.106 283.24 806.665 281.38 807.557C278.32 809.025 273.781 807.901 270.737 807.03C266.937 805.943 263.069 804.82 258.445 805.109C250.03 805.636 245.641 810.338 250.329 813.67C251.778 814.699 255.426 813.809 253.958 812.766Z" fill="#E6E6E6"/>
<path d="M292.413 810.259C294.676 810.259 296.511 809.388 296.511 808.314C296.511 807.24 294.676 806.369 292.413 806.369C290.15 806.369 288.315 807.24 288.315 808.314C288.315 809.388 290.15 810.259 292.413 810.259Z" fill="#E6E6E6"/>
<path d="M3.67517 317.314C-1.96214 293.626 -1.02201 270.294 8.63111 247.436C8.73303 246.021 9.39145 244.705 10.462 243.776C11.5325 242.847 12.9277 242.381 14.3415 242.48L67.0896 246.224C68.5032 246.326 69.8185 246.985 70.7472 248.056C71.6759 249.127 72.142 250.523 72.0433 251.937L67.0873 321.815C66.9854 323.23 66.327 324.546 65.2565 325.475C64.186 326.404 62.7908 326.87 61.377 326.771L8.62888 323.027C7.21534 322.925 5.89992 322.266 4.97125 321.195C4.04257 320.124 3.57646 318.728 3.67517 317.314Z" fill="#F2F2F2"/>
<path d="M9.21815 296.495C4.70667 284.822 7.59125 268.768 12.4043 251.571C12.4997 250.246 13.1163 249.014 14.1189 248.144C15.1215 247.274 16.4282 246.837 17.7522 246.929L63.0848 250.148C64.4086 250.243 65.6406 250.86 66.5104 251.863C67.3802 252.866 67.8167 254.173 67.7243 255.498L63.3142 317.68C63.2188 319.005 62.602 320.237 61.5994 321.107C60.5968 321.977 59.2901 322.414 57.966 322.322L29.8834 320.328C23.9866 319.903 18.4992 317.155 14.6251 312.687C10.7509 308.219 8.8064 302.396 9.21815 296.495Z" fill="white"/>
<path d="M40.6032 299.541C39.2185 299.303 37.8338 299.065 36.4491 298.827C37.0871 297.321 37.4552 295.714 37.5369 294.08C38.1922 285.334 38.2583 276.505 38.6079 267.742C38.5988 267.421 38.4972 267.11 38.3154 266.846C38.1336 266.582 37.8793 266.376 37.5833 266.254C37.2872 266.131 36.962 266.097 36.6468 266.155C36.3316 266.213 36.04 266.361 35.807 266.581C32.3295 269.463 28.8519 272.344 25.3743 275.226C23.7465 276.575 26.0792 278.886 27.6947 277.548C30.1907 275.479 32.6867 273.411 35.1828 271.343C34.9537 277.085 34.7246 282.827 34.4955 288.569C34.3856 291.325 34.7204 294.672 33.5927 297.262C33.4385 297.612 33.2372 297.939 32.9944 298.233C31.4614 297.97 29.9283 297.706 28.3952 297.443C27.2926 297.253 25.8917 298.174 26.3769 299.462C27.4321 302.263 30.5427 303.147 33.21 302.068C33.4451 301.962 33.6726 301.841 33.8908 301.703L39.7309 302.707C41.7963 303.062 42.6836 299.899 40.6032 299.541Z" fill="#F2F2F2"/>
<path d="M195.094 323.88C189.457 300.192 190.397 276.86 200.05 254.002C200.152 252.588 200.81 251.272 201.881 250.342C202.951 249.413 204.346 248.947 205.76 249.046L258.508 252.79C259.922 252.892 261.237 253.551 262.166 254.622C263.095 255.693 263.561 257.089 263.462 258.503L258.506 328.382C258.404 329.796 257.746 331.112 256.675 332.041C255.605 332.97 254.209 333.436 252.796 333.338L200.048 329.593C198.634 329.491 197.319 328.832 196.39 327.761C195.461 326.69 194.995 325.294 195.094 323.88Z" fill="#F2F2F2"/>
<path d="M200.637 303.061C196.125 291.388 199.01 275.334 203.823 258.137C203.918 256.813 204.535 255.58 205.538 254.71C206.54 253.84 207.847 253.403 209.171 253.495L254.503 256.714C255.827 256.809 257.059 257.426 257.929 258.429C258.799 259.432 259.235 260.739 259.143 262.064L254.733 324.246C254.637 325.571 254.021 326.803 253.018 327.673C252.016 328.543 250.709 328.98 249.385 328.888L221.302 326.894C215.405 326.469 209.918 323.721 206.044 319.253C202.17 314.785 200.225 308.962 200.637 303.061Z" fill="white"/>
<path d="M230.23 291.205C230.833 290.923 231.403 290.577 231.931 290.173C233.337 289.013 234.376 287.47 234.922 285.732C235.469 283.993 235.499 282.133 235.01 280.377C232.883 272.559 223.536 272.511 217.083 273.452C215.001 273.755 215.886 276.919 217.955 276.618C222.304 275.984 229.132 275.471 231.469 280.224C232.002 281.34 232.192 282.59 232.014 283.814C231.836 285.039 231.299 286.183 230.47 287.101C229.478 288.096 228.173 288.717 226.776 288.858C225.423 288.269 223.954 287.995 222.48 288.056C220.959 288.128 220.112 290.34 221.652 291.115C223.014 291.794 224.515 292.148 226.038 292.15C227.3 292.759 228.354 293.728 229.068 294.934C229.781 296.141 230.122 297.532 230.048 298.932C229.903 299.891 229.57 300.811 229.068 301.641C228.566 302.47 227.905 303.192 227.123 303.765C226.341 304.337 225.454 304.75 224.512 304.979C223.57 305.207 222.592 305.247 221.635 305.097C219.573 304.682 218.691 307.845 220.763 308.262C222.177 308.529 223.63 308.506 225.036 308.196C226.441 307.886 227.769 307.294 228.94 306.457C230.111 305.619 231.1 304.553 231.848 303.323C232.596 302.093 233.087 300.724 233.293 299.299C233.423 297.807 233.215 296.304 232.685 294.902C232.155 293.501 231.316 292.237 230.23 291.205Z" fill="#F2F2F2"/>
<path d="M297.634 772.001L279.075 772L270.247 700.381L297.637 700.384L297.634 772.001Z" fill="#FFB6B6"/>
<path d="M298.287 791.371L241.217 791.368V790.646C241.217 784.752 243.558 779.1 247.724 774.932C251.889 770.765 257.539 768.423 263.43 768.423H263.432L273.856 760.51L293.306 768.424L298.288 768.424L298.287 791.371Z" fill="#2F2E41"/>
<path d="M382.952 811.397L364.393 811.396L355.565 739.778L382.955 739.78L382.952 811.397Z" fill="#FFB6B6"/>
<path d="M383.605 830.767L326.535 830.765V830.043C326.535 824.149 328.876 818.496 333.042 814.329C337.207 810.161 342.857 807.82 348.748 807.819H348.75L359.174 799.907L378.624 807.82L383.606 807.821L383.605 830.767Z" fill="#2F2E41"/>
<path d="M154.618 238.658C155.892 240.084 157.461 241.215 159.216 241.974C160.971 242.733 162.87 243.102 164.781 243.055C166.692 243.007 168.57 242.545 170.286 241.701C172.001 240.856 173.512 239.648 174.715 238.161L237.994 256.182L247.28 239.896L171.966 219.042C169.314 217.203 166.079 216.401 162.876 216.788C159.672 217.174 156.721 218.724 154.583 221.141C152.445 223.559 151.267 226.678 151.274 229.906C151.28 233.135 152.47 236.249 154.618 238.658Z" fill="#FFB6B6"/>
<path d="M319.172 389.389L252.589 541.701L244.932 565.777L268.082 734.761L305.447 732.937L305.363 711.266C305.363 711.266 296.471 706.442 305.334 703.822C314.197 701.201 313.824 694.549 305.26 684.743C296.696 674.937 304.859 581.098 304.859 581.098C304.859 581.098 340.121 547.315 336.279 538.489C332.438 529.663 339.569 529.663 339.569 529.663C339.569 529.663 347.171 528.303 347.461 524.606C347.751 520.909 353.386 513.475 353.386 513.475L351.412 773.736H383.652C383.652 773.736 398.391 749.23 395.495 743.957C392.598 738.683 388.547 738.166 395.495 731.859C402.443 725.551 412.64 730.713 408.088 718.83C403.536 706.947 404.706 578.716 404.706 578.716C404.706 578.716 422.64 504.304 411.56 499.251C400.479 494.199 405.988 494.912 412.531 487.989C419.074 481.066 407.977 481.699 413.526 476.458C419.074 471.217 419.298 409.537 419.298 409.537L319.172 389.389Z" fill="#2F2E41"/>
<path d="M424.319 432.267C377.646 432.157 337.601 442.652 290.927 442.542C293.968 421.488 304.595 388.486 307.634 367.426C311.909 337.805 308.594 320.125 312.858 290.505C313.285 287.605 313.701 284.716 314.116 281.816C315.801 270.106 311.765 258.397 319.006 246.031C322.09 240.756 327.22 235.372 335.719 229.813C353.374 231.607 353.067 223.64 370.722 225.435L376.563 237.079C377.306 241.5 379.986 244.378 383.618 246.556C391.089 251.076 402.596 252.652 409.508 258.769C418.193 266.451 417.614 278.741 415.032 290.735C414.114 295.003 412.943 299.227 411.838 303.199C402.946 335.205 414.312 359.623 423.579 389.313C424.458 392.128 416.135 403.015 417.016 405.728C418.512 410.325 423.866 416.043 423.014 419.149C421.958 422.995 420.906 426.613 424.319 432.267Z" fill="#3F51B5"/>
<path d="M415.032 290.735L312.858 290.505L309.577 290.494L188.408 245.953L203.914 246.479L211.111 229.878L214.579 221.9L285.994 245.779L319.006 246.031L381.244 246.49C382.043 246.501 382.83 246.523 383.618 246.556C391.089 251.076 402.596 252.652 409.508 258.769C418.193 266.451 417.614 278.741 415.032 290.735Z" fill="#3F51B5"/>
<path d="M345.227 222.259C363.565 222.259 378.43 207.386 378.43 189.04C378.43 170.694 363.565 155.821 345.227 155.821C326.889 155.821 312.024 170.694 312.024 189.04C312.024 207.386 326.889 222.259 345.227 222.259Z" fill="#FFB6B6"/>
<path d="M340.508 217.593L343.213 226.245C349.21 223.283 366.226 219.173 371.22 214.722C376.213 210.271 380.075 204.128 380.312 197.441C380.434 193.988 379.598 190.504 380.172 187.096C380.82 183.245 383.195 179.907 384.283 176.157C385.3 172.229 384.917 168.069 383.2 164.393C381.483 160.717 378.538 157.754 374.874 156.015C369.37 153.595 363.076 154.275 357.093 153.69C351.11 153.105 344.435 150.397 342.751 144.623C342.121 142.464 342.193 139.919 340.266 138.505C339.297 137.857 338.123 137.591 336.97 137.758C335.817 137.925 334.766 138.513 334.021 139.409C333.932 139.509 333.847 139.611 333.765 139.714C328.7 146.071 319.154 146.543 314.159 140.131C313.832 139.712 313.518 139.283 313.217 138.845C312.167 139.829 311.323 141.01 310.733 142.322C310.142 143.634 309.818 145.05 309.778 146.488C309.737 147.927 309.983 149.359 310.499 150.701C311.016 152.044 311.793 153.271 312.786 154.312C310.9 154.312 309.068 153.677 307.586 152.508C306.105 151.339 305.06 149.705 304.621 147.869C302.33 151.035 299.978 154.338 299.241 158.177C298.505 162.016 299.872 166.556 303.391 168.255C305.187 168.965 307.115 169.281 309.044 169.181C299.965 179.924 305.412 179.615 323.796 169.461C332.916 169.635 329.314 178.113 329.433 187.239C333.725 186.826 338.145 186.423 342.204 188.231C344.095 189.028 345.688 190.397 346.759 192.147C349.442 196.757 346.781 201.548 344.422 205.741C342.406 209.325 340.495 213.641 342.168 217.398" fill="#2F2E41"/>
<path d="M280.078 496.075C281.751 495.15 283.203 493.872 284.334 492.33C285.465 490.788 286.248 489.018 286.628 487.144C287.009 485.269 286.978 483.334 286.537 481.473C286.097 479.612 285.257 477.869 284.077 476.364L315.752 418.67L301.956 405.981L264.835 474.78C262.452 476.956 260.948 479.931 260.611 483.142C260.273 486.353 261.124 489.576 263.003 492.201C264.881 494.826 267.657 496.67 270.804 497.384C273.951 498.098 277.251 497.632 280.078 496.075Z" fill="#FFB6B6"/>
<path d="M357.333 226.278L349.95 358.606L314.379 441.765L291.227 472.483L293.859 458.564L277.9 450.575L276.401 449.831L297.643 396L304.053 379.76L307.039 330.875L309.861 284.65C310.348 276.695 312.48 268.928 316.121 261.84C319.762 254.752 324.834 248.496 331.016 243.47L348.736 229.068L357.333 226.278Z" fill="#3F51B5"/>
<path d="M108.682 226.483C103.045 202.795 103.985 179.464 113.638 156.605C113.74 155.191 114.398 153.875 115.469 152.946C116.539 152.017 117.935 151.55 119.348 151.649L172.096 155.394C173.51 155.496 174.825 156.154 175.754 157.225C176.683 158.296 177.149 159.692 177.05 161.107L172.094 230.985C171.992 232.399 171.334 233.715 170.263 234.644C169.193 235.573 167.798 236.04 166.384 235.941L113.636 232.196C112.222 232.094 110.907 231.436 109.978 230.364C109.049 229.293 108.583 227.898 108.682 226.483Z" fill="#F2F2F2"/>
<path d="M114.225 205.664C109.713 193.991 112.598 177.937 117.411 160.74C117.506 159.416 118.123 158.183 119.126 157.313C120.128 156.443 121.435 156.006 122.759 156.099L168.092 159.317C169.415 159.412 170.647 160.029 171.517 161.032C172.387 162.035 172.824 163.343 172.731 164.667L168.321 226.849C168.226 228.174 167.609 229.406 166.606 230.277C165.604 231.147 164.297 231.583 162.973 231.491L134.89 229.497C128.993 229.072 123.506 226.324 119.632 221.856C115.758 217.388 113.813 211.565 114.225 205.664Z" fill="white"/>
<path d="M142.102 174.372C137.455 172.759 132.288 176.436 131.76 181.203C131.163 186.606 136.972 190.871 142.001 189.403C144.024 188.812 143.163 185.643 141.129 186.237C137.442 187.313 133.51 183.331 135.629 179.771C136.111 178.911 136.843 178.219 137.727 177.786C138.612 177.353 139.607 177.2 140.581 177.347C141.407 177.576 142.169 177.996 142.804 178.572C143.439 179.149 143.931 179.867 144.239 180.668C146.047 184.746 143.898 188.886 141.049 191.85C139.424 193.54 137.517 194.854 135.766 196.395C134.915 197.038 134.208 197.853 133.69 198.787C133.173 199.721 132.857 200.753 132.763 201.816C132.809 203.012 133.181 204.173 133.839 205.172C134.496 206.172 135.415 206.972 136.495 207.487C139.292 208.927 142.475 208.469 145.451 207.99C147.53 207.655 146.648 204.491 144.578 204.824C141.976 205.243 138.078 205.878 136.429 203.163C135.016 200.837 137.927 198.796 139.512 197.558C143.497 194.449 147.527 190.435 148.126 185.149C148.616 180.818 146.416 175.87 142.102 174.372Z" fill="#3F51B5"/>
<path d="M415.65 814.032C416.159 814.055 416.662 813.922 417.092 813.649C417.522 813.377 417.858 812.979 418.055 812.509C418.251 812.039 418.298 811.52 418.19 811.023C418.082 810.525 417.823 810.073 417.45 809.727L417.279 809.051C417.302 808.997 417.324 808.943 417.347 808.888C417.859 807.678 418.717 806.646 419.814 805.922C420.911 805.198 422.196 804.815 423.51 804.819C424.824 804.824 426.107 805.217 427.198 805.95C428.289 806.682 429.14 807.72 429.643 808.934C431.654 813.78 434.215 818.634 434.845 823.758C435.123 826.023 435.006 828.319 434.499 830.544C439.222 820.235 441.675 809.031 441.691 797.69C441.692 794.845 441.534 792.001 441.218 789.173C440.956 786.855 440.593 784.553 440.13 782.268C437.598 769.867 432.162 758.245 424.269 748.354C420.449 746.269 417.359 743.062 415.417 739.165C414.713 737.765 414.216 736.27 413.94 734.727C414.371 734.783 415.565 728.217 415.24 727.814C415.841 726.902 416.916 726.449 417.572 725.559C420.834 721.134 425.328 721.907 427.674 727.92C432.686 730.451 432.735 734.648 429.66 738.685C427.703 741.253 427.434 744.728 425.717 747.478C425.894 747.704 426.078 747.923 426.254 748.149C429.483 752.303 432.297 756.763 434.656 761.466C434.082 756.197 434.767 750.868 436.654 745.916C438.566 741.3 442.15 737.413 445.306 733.424C446.141 732.352 447.275 731.552 448.564 731.124C449.853 730.697 451.24 730.662 452.549 731.023C453.859 731.384 455.031 732.125 455.92 733.153C456.808 734.181 457.372 735.45 457.54 736.798C457.546 736.857 457.552 736.915 457.558 736.974C457.09 737.239 456.631 737.52 456.182 737.817C455.618 738.194 455.181 738.733 454.928 739.362C454.675 739.992 454.618 740.684 454.765 741.346C454.912 742.009 455.255 742.612 455.75 743.076C456.245 743.54 456.869 743.844 457.539 743.947L457.608 743.958C457.441 745.648 457.146 747.323 456.725 748.969C460.774 764.636 452.032 770.342 439.55 770.598C439.275 770.739 439.006 770.881 438.731 771.015C441.101 777.735 442.587 784.734 443.153 791.838C443.474 796.029 443.455 800.239 443.097 804.426L443.118 804.278C444.022 799.621 446.505 795.419 450.147 792.382C455.557 787.936 463.2 786.299 469.036 782.725C469.656 782.327 470.377 782.114 471.114 782.112C471.851 782.111 472.574 782.32 473.196 782.715C473.818 783.111 474.314 783.676 474.626 784.344C474.937 785.012 475.052 785.756 474.955 786.487L474.931 786.643C474.061 786.997 473.214 787.406 472.395 787.866C471.926 788.13 471.467 788.411 471.018 788.708C470.454 789.085 470.017 789.624 469.764 790.254C469.511 790.884 469.454 791.575 469.601 792.238C469.748 792.9 470.091 793.503 470.586 793.967C471.081 794.431 471.705 794.735 472.375 794.838L472.444 794.849C472.494 794.856 472.536 794.863 472.585 794.87C471.099 798.421 469.013 801.69 466.418 804.532C463.886 818.209 453.012 819.506 441.38 815.524H441.373C440.097 821.072 438.248 826.473 435.855 831.639H416.144C416.074 831.42 416.01 831.194 415.947 830.975C417.771 831.089 419.603 830.98 421.401 830.65C419.938 828.854 418.476 827.045 417.013 825.249C416.981 825.216 416.95 825.18 416.921 825.143C416.18 824.225 415.431 823.313 414.689 822.394L414.689 822.393C414.649 819.576 414.973 816.766 415.65 814.032Z" fill="#F2F2F2"/>
<path d="M195.189 831.698C195.189 831.869 195.222 832.039 195.288 832.197C195.353 832.355 195.449 832.499 195.57 832.62C195.691 832.741 195.834 832.837 195.992 832.902C196.151 832.967 196.32 833.001 196.491 833H473.545C473.89 833 474.221 832.863 474.465 832.619C474.71 832.374 474.847 832.043 474.847 831.698C474.847 831.352 474.71 831.021 474.465 830.777C474.221 830.533 473.89 830.396 473.545 830.396H196.491C196.32 830.395 196.151 830.428 195.992 830.494C195.834 830.559 195.691 830.655 195.57 830.776C195.449 830.897 195.353 831.041 195.288 831.199C195.222 831.357 195.189 831.527 195.189 831.698Z" fill="#CCCCCC"/>
<path d="M55.7148 112.206C54.346 132.445 55.0036 155.414 70.706 170.427C74.3851 173.977 78.7789 176.702 83.5939 178.418C85.5895 179.122 86.4478 175.952 84.4663 175.253C76.3999 172.408 70.0538 166.156 65.8255 158.847C60.8688 150.278 58.9776 140.393 58.5635 130.595C58.3712 124.462 58.5157 118.323 58.9963 112.206C59.1389 110.097 55.8569 110.106 55.7148 112.206Z" fill="#3F3D56"/>
<path d="M80.1751 158.519C84.0673 160.328 88.1468 162.168 91.2257 165.244C94.0344 168.05 95.9955 172.143 94.8575 176.143C92.9905 182.704 84.6758 185.178 78.8787 186.743C78.4725 186.87 78.1316 187.151 77.9278 187.525C77.7241 187.898 77.6734 188.337 77.7866 188.748C77.8997 189.158 78.1678 189.509 78.5343 189.725C78.9007 189.942 79.337 190.008 79.751 189.909C85.5826 188.335 92.1216 186.137 95.9308 181.142C100.438 175.232 98.2985 167.441 93.2351 162.62C89.9731 159.514 85.8698 157.561 81.8312 155.684C79.9282 154.799 78.2596 157.628 80.1751 158.519Z" fill="#3F3D56"/>
</g>
<defs>
<clipPath id="clip0_608_2224">
<rect width="475" height="833" fill="white"/>
</clipPath>
</defs>
</svg>
